<svg width="182" height="60" viewBox="0 0 182 60" fill="none" xmlns="http://www.w3.org/2000/svg">
    <g clip-path="url(#clip0_2001_34)">
        <path d="M8.15217 19.5109V59.0761H1.08696V19.5109H8.15217ZM4.56522 12.337C3.2971 12.337 2.22826 11.9203 1.3587 11.087C0.452898 10.2536 0 9.13043 0 7.71739C0 6.30435 0.452898 5.16304 1.3587 4.29348C2.22826 3.46014 3.2971 3.04348 4.56522 3.04348C5.83333 3.04348 6.92029 3.46014 7.82609 4.29348C8.69565 5.16304 9.13043 6.30435 9.13043 7.71739C9.13043 9.13043 8.69565 10.2536 7.82609 11.087C6.92029 11.9203 5.83333 12.337 4.56522 12.337ZM20.3261 59.0761V20.6522C21.9565 20.2536 24.1123 19.8188 26.7935 19.3478C29.4746 18.8768 32.5725 18.6413 36.087 18.6413C39.2391 18.6413 41.8478 19.0942 43.913 20C46.0145 20.8696 47.6812 22.1014 48.913 23.6956C50.1449 25.3261 51.0145 27.2464 51.5217 29.4565C52.029 31.7029 52.2826 34.1667 52.2826 36.8478V59.0761H45.2174V38.3696C45.2174 35.942 45.0543 33.8587 44.7283 32.1196C44.4022 30.4167 43.8587 29.0217 43.0978 27.9348C42.337 26.8841 41.3225 26.1051 40.0543 25.5978C38.7862 25.1268 37.2101 24.8913 35.3261 24.8913C34.5652 24.8913 33.7862 24.9275 32.9891 25C32.1558 25.0362 31.3768 25.0906 30.6522 25.163C29.9275 25.2355 29.2754 25.3261 28.6957 25.4348C28.0797 25.5435 27.6449 25.6159 27.3913 25.6522V59.0761H20.3261ZM73.2065 53.9674C76.1051 53.9674 78.2428 53.587 79.6196 52.8261C81.0326 52.0652 81.7391 50.8514 81.7391 49.1848C81.7391 47.4456 81.0507 46.0688 79.6739 45.0543C78.2971 44.0399 76.0507 42.8985 72.9348 41.6304C71.413 41.0145 69.9456 40.3985 68.5326 39.7826C67.1558 39.1304 65.9601 38.3877 64.9456 37.5543C63.9312 36.6848 63.1159 35.6341 62.5 34.4022C61.8841 33.2065 61.5761 31.721 61.5761 29.9457C61.5761 26.4312 62.8623 23.6413 65.4348 21.5761C68.0435 19.5471 71.5761 18.5326 76.0326 18.5326C77.1558 18.5326 78.279 18.587 79.4022 18.6957C80.4891 18.8406 81.5217 19.0036 82.5 19.1848C83.4783 19.3297 84.3297 19.5109 85.0543 19.7283C85.779 19.9457 86.3406 20.1268 86.7391 20.2717L85.4891 26.3587C84.7283 25.9601 83.5326 25.5435 81.9022 25.1087C80.2717 24.6739 78.3152 24.4565 76.0326 24.4565C74.0399 24.4565 72.3188 24.837 70.8696 25.5978C69.3841 26.3949 68.6413 27.6268 68.6413 29.2935C68.6413 30.163 68.8043 30.9239 69.1304 31.5761C69.4565 32.2645 69.9638 32.8623 70.6522 33.3696C71.3406 33.913 72.192 34.4203 73.2065 34.8913C74.221 35.3261 75.4348 35.7971 76.8478 36.3043C78.7319 37.029 80.4167 37.7355 81.9022 38.4239C83.3514 39.1123 84.6014 39.9094 85.6522 40.8152C86.7029 41.721 87.5 42.8261 88.0435 44.1304C88.6232 45.3985 88.913 46.9746 88.913 48.8587C88.913 52.5181 87.5543 55.2899 84.837 57.1739C82.1196 59.058 78.2428 60 73.2065 60C69.7283 60 66.9928 59.692 65 59.0761C63.0072 58.4964 61.6667 58.0616 60.9783 57.7717L62.2826 51.6848C63.0797 51.9746 64.3659 52.4275 66.1413 53.0435C67.9167 53.6594 70.2717 53.9674 73.2065 53.9674ZM104.565 7.22826V19.5109H119.565V25.4348H104.565V43.6957C104.565 45.6884 104.71 47.3188 105 48.587C105.326 49.8913 105.797 50.9058 106.413 51.6304C106.993 52.3913 107.754 52.9167 108.696 53.2065C109.601 53.4964 110.652 53.6413 111.848 53.6413C113.986 53.6413 115.707 53.4058 117.011 52.9348C118.315 52.4638 119.221 52.1196 119.728 51.9022L121.087 57.7717C120.362 58.1341 119.112 58.5688 117.337 59.0761C115.562 59.6196 113.533 59.8913 111.25 59.8913C108.569 59.8913 106.359 59.5471 104.62 58.8587C102.844 58.1703 101.431 57.1558 100.38 55.8152C99.3297 54.4384 98.587 52.7536 98.1522 50.7609C97.7174 48.7319 97.5 46.3949 97.5 43.75V8.47826L104.565 7.22826ZM141.902 53.9674C143.605 53.9674 145.091 53.9312 146.359 53.8587C147.663 53.7862 148.75 53.6413 149.62 53.4239V41.6304C149.112 41.3768 148.279 41.1594 147.12 40.9783C145.996 40.7971 144.62 40.7065 142.989 40.7065C141.938 40.7065 140.815 40.7971 139.62 40.9783C138.424 41.1232 137.319 41.4312 136.304 41.9022C135.326 42.3732 134.511 43.0254 133.859 43.8587C133.207 44.7283 132.88 45.8333 132.88 47.1739C132.88 49.7101 133.696 51.4855 135.326 52.5C136.92 53.4783 139.112 53.9674 141.902 53.9674ZM141.304 18.5326C144.167 18.5326 146.558 18.8949 148.478 19.6196C150.435 20.3442 152.011 21.3768 153.207 22.7174C154.402 24.058 155.254 25.6703 155.761 27.5543C156.268 29.4022 156.522 31.4312 156.522 33.6413V58.3696C155.906 58.4783 155.054 58.6232 153.967 58.8043C152.88 58.9855 151.649 59.1485 150.272 59.2935C148.931 59.4384 147.446 59.5833 145.815 59.7283C144.221 59.837 142.645 59.8913 141.087 59.8913C138.841 59.8913 136.793 59.6739 134.946 59.2391C133.062 58.7681 131.431 58.0435 130.054 57.0652C128.678 56.0507 127.609 54.7464 126.848 53.1522C126.087 51.5217 125.707 49.5652 125.707 47.2826C125.707 45.1087 126.159 43.2246 127.065 41.6304C127.935 40.0725 129.13 38.8043 130.652 37.8261C132.174 36.8841 133.949 36.1775 135.978 35.7065C138.007 35.2355 140.145 35 142.391 35C143.08 35 143.804 35.0362 144.565 35.1087C145.326 35.2174 146.051 35.3261 146.739 35.4348C147.428 35.5797 148.025 35.6884 148.533 35.7609C149.04 35.8696 149.402 35.9601 149.62 36.0326V34.0217C149.62 32.8623 149.493 31.7029 149.239 30.5435C148.985 29.4203 148.533 28.4239 147.88 27.5543C147.192 26.6485 146.286 25.9239 145.163 25.3804C144.004 24.8732 142.518 24.6196 140.707 24.6196C138.388 24.6196 136.341 24.7826 134.565 25.1087C132.826 25.4348 131.522 25.779 130.652 26.1413L129.837 20.2717C130.743 19.8732 132.264 19.4746 134.402 19.0761C136.54 18.7138 138.841 18.5326 141.304 18.5326ZM181.087 53.913L180.109 59.837C175.761 59.7283 172.663 58.7862 170.815 57.0109C169.004 55.2355 168.098 52.4638 168.098 48.6957V1.25L175.163 0V47.5543C175.163 48.75 175.272 49.7283 175.489 50.4891C175.67 51.25 175.996 51.8478 176.467 52.2826C176.938 52.7536 177.554 53.0978 178.315 53.3152C179.076 53.5326 180 53.7319 181.087 53.913Z" fill="#6957B0" />
    </g>
    <defs>
        <clipPath id="clip0_2001_34">
            <rect width="181.087" height="60" fill="white" />
        </clipPath>
    </defs>
</svg>
